<?xml version="1.0" encoding="utf-8" standalone="yes"?>
<!DOCTYPE svg PUBLIC "-//W3C//DTD SVG 1.1//EN" "http://www.w3.org/Graphics/SVG/1.1/DTD/svg11.dtd">
<svg width="816" height="552" viewBox="0 0 816 552" style="fill:none;stroke:none;fill-rule:evenodd;clip-rule:evenodd;stroke-linecap:round;stroke-linejoin:round;stroke-miterlimit:1.5;" version="1.1" xmlns="http://www.w3.org/2000/svg" xmlns:xlink="http://www.w3.org/1999/xlink"><style class="text-font-style fontImports" data-font-family="Roboto">@import url('https://fonts.googleapis.com/css2?family=Roboto:wght@400;700&amp;display=block');</style><rect id="" x="0" y="0" width="816" height="552" style="fill: #ffffff;"></rect><g id="items" style="isolation: isolate"><g id="blend" style="mix-blend-mode: normal"><g id="g-root-tf_m8ljjb17mc4r2-fill" data-item-order="999324352"><g id="tf_m8ljjb17mc4r2-fill" stroke="none" fill="#ffffff"><g><path d="M0 0h816 v552 h -816 Z"></path></g></g></g><g id="g-root-sy_5_cu_18lxt0n17mc3ym-fill" data-item-order="999928551" transform="translate(463.24951171875, 331.755859375)"><g id="sy_5_cu_18lxt0n17mc3ym-fill" stroke="none" fill="#3cc583"><g><path d="M 21.3646 112.332C 20.3601 99.7068 16.3302 87.9343 10 77.7392L 103.3361 10C 123.34 39.3254 135.429 74.4805 136.529 112.391L 21.3646 112.332Z"></path></g></g></g><g id="g-root-sy_4_cu_1464aw717mc4qv-fill" data-item-order="999928555" transform="translate(427, 259)"><g id="sy_4_cu_1464aw717mc4qv-fill" stroke="none" fill="#fd6a65"><g><path d="M 39.4485 141.169C 31.5362 131.856 21.4613 124.437 10 119.689L 45.5779 10C 80.4046 22.4662 110.58 44.7084 132.798 73.42L 39.4485 141.169Z"></path></g></g></g><g id="g-root-sy_3_cu_1464aw717mc4qw-fill" data-item-order="999928559" transform="translate(343.9873046875, 248)"><g id="sy_3_cu_1464aw717mc4qw-fill" stroke="none" fill="#e0cb15"><g><path d="M 82.0987 127.265C 76.1178 125.785 69.8631 125 63.425 125C 57.2918 125 51.3251 125.712 45.6029 127.059L 10 17.6761C 27.1074 12.6796 45.2033 10 63.925 10C 82.578 10 100.6097 12.6599 117.662 17.6212L 82.0987 127.265Z"></path></g></g></g><g id="g-root-sy_2_cu_1464aw717mc4qx-fill" data-item-order="999928563" transform="translate(245.9755859375, 259.24609375)"><g id="sy_2_cu_1464aw717mc4qx-fill" stroke="none" fill="#1eabda"><g><path d="M 132.608 119.293C 120.996 123.949 110.773 131.333 102.7324 140.654L 10 73.3525C 32.1782 44.6923 62.2858 22.4785 97.034 10L 132.608 119.293Z"></path></g></g></g><g id="g-root-sy_1_cu_zqasrr17mc5j6-fill" data-item-order="999928567" transform="translate(206, 331.935546875)"><g id="sy_1_cu_zqasrr17mc5j6-fill" stroke="none" fill="#4e88e7"><g><path d="M 135.837 77.2402C 129.34 87.5284 125.197 99.4516 124.165 112.253L 10 112.195C 11.1361 74.3591 23.2184 39.2747 43.1883 10L 135.837 77.2402Z"></path></g></g></g><g id="g-root-tx_politica_1d309bb17mosnh-fill" data-item-order="1000000000" transform="translate(320, 158)"><g id="tx_politica_1d309bb17mosnh-fill" stroke="none" fill="#46432d"><g><text style="font-style: normal; font-variant-caps: normal; font-weight: bold; font-stretch: normal; font-size: 20px; line-height: normal; font-family: Roboto, sans-serif; font-size-adjust: none; font-kerning: auto; font-variant-alternates: normal; font-variant-ligatures: normal; font-variant-numeric: normal; font-variant-east-asian: normal; font-variant-position: normal; font-variant-emoji: normal; font-feature-settings: normal; font-optical-sizing: auto; font-variation-settings: normal; white-space: pre;"><tspan x="13.16" y="34" dominant-baseline="ideographic">Political Science</tspan></text></g></g></g><g id="g-root-tx_urbanana_zs681317mor2m-fill" data-item-order="1000000000" transform="translate(122, 206)"><g id="tx_urbanana_zs681317mor2m-fill" stroke="none" fill="#424736"><g><text style="font-style: normal; font-variant-caps: normal; font-weight: bold; font-stretch: normal; font-size: 20px; line-height: normal; font-family: Roboto, sans-serif; font-size-adjust: none; font-kerning: auto; font-variant-alternates: normal; font-variant-ligatures: normal; font-variant-numeric: normal; font-variant-east-asian: normal; font-variant-position: normal; font-variant-emoji: normal; font-feature-settings: normal; font-optical-sizing: auto; font-variation-settings: normal; white-space: pre;"><tspan x="28.21" y="34" dominant-baseline="ideographic">Urban </tspan><tspan x="16.21" y="58" dominant-baseline="ideographic">Analytics</tspan></text></g></g></g><g id="g-root-tx_healthan_8d8vb17motms-fill" data-item-order="1000000000" transform="translate(572, 206)"><g id="tx_healthan_8d8vb17motms-fill" stroke="none" fill="#4c4034"><g><text style="font-style: normal; font-variant-caps: normal; font-weight: bold; font-stretch: normal; font-size: 20px; line-height: normal; font-family: Roboto, sans-serif; font-size-adjust: none; font-kerning: auto; font-variant-alternates: normal; font-variant-ligatures: normal; font-variant-numeric: normal; font-variant-east-asian: normal; font-variant-position: normal; font-variant-emoji: normal; font-feature-settings: normal; font-optical-sizing: auto; font-variation-settings: normal; white-space: pre;"><tspan x="12.76" y="34" dominant-baseline="ideographic">Health and </tspan><tspan x="16.76" y="58" dominant-baseline="ideographic">Wellbeing</tspan></text></g></g></g><g id="g-root-ic_1_13zvk1317mnd37-fill" data-item-order="1000000000" transform="translate(374, 278)"></g><g id="g-root-ic_clou_dgpdt317mm03u-fill" data-item-order="1000000000" transform="translate(290, 302)"></g><g id="g-root-ic_wave_1hfpe0717mne2s-fill" data-item-order="1000000000" transform="translate(458, 302)"></g><g id="g-root-tx_transpor_mgppnr17mosnj-fill" data-item-order="1000000000" transform="translate(26, 362)"><g id="tx_transpor_mgppnr17mosnj-fill" stroke="none" fill="#374840"><g><text style="font-style: normal; font-variant-caps: normal; font-weight: bold; font-stretch: normal; font-size: 20px; line-height: normal; font-family: Roboto, sans-serif; font-size-adjust: none; font-kerning: auto; font-variant-alternates: normal; font-variant-ligatures: normal; font-variant-numeric: normal; font-variant-east-asian: normal; font-variant-position: normal; font-variant-emoji: normal; font-feature-settings: normal; font-optical-sizing: auto; font-variation-settings: normal; white-space: pre;"><tspan x="15.17" y="34" dominant-baseline="ideographic">Transportation</tspan></text></g></g></g><g id="g-root-tx_environm_djtr8n17mos1v-fill" data-item-order="1000000000" transform="translate(626, 361.607421875)"><g id="tx_environm_djtr8n17mos1v-fill" stroke="none" fill="#543a3a"><g><text style="font-style: normal; font-variant-caps: normal; font-weight: bold; font-stretch: normal; font-size: 20px; line-height: normal; font-family: Roboto, sans-serif; font-size-adjust: none; font-kerning: auto; font-variant-alternates: normal; font-variant-ligatures: normal; font-variant-numeric: normal; font-variant-east-asian: normal; font-variant-position: normal; font-variant-emoji: normal; font-feature-settings: normal; font-optical-sizing: auto; font-variation-settings: normal; white-space: pre;"><tspan x="14.64" y="34" dominant-baseline="ideographic">Environmental </tspan><tspan x="43.64" y="58" dominant-baseline="ideographic">Science</tspan></text></g></g></g><g id="g-root-ic_bus_1i0x317mhr0k-fill" data-item-order="1000000000" transform="translate(242, 374)"></g><g id="g-root-ic_stra_zqasrr17mc5j7-fill" data-item-order="1000000000" transform="translate(362, 386)"></g><g id="g-root-ic_road_1uljmlj17motmt-fill" data-item-order="1000000000" transform="translate(506, 374)"></g><g id="g-root-tx_4ikaw717waayq-fill" data-item-order="1000000000" transform="translate(326, 478)"><g id="tx_4ikaw717waayq-fill" stroke="none" fill="#484848"><g><text style="font-style: normal; font-variant-caps: normal; font-weight: bold; font-stretch: normal; font-size: 20px; line-height: normal; font-family: Roboto, sans-serif; font-size-adjust: none; font-kerning: auto; font-variant-alternates: normal; font-variant-ligatures: normal; font-variant-numeric: normal; font-variant-east-asian: normal; font-variant-position: normal; font-variant-emoji: normal; font-feature-settings: normal; font-optical-sizing: auto; font-variation-settings: normal; white-space: pre;"><tspan x="12" y="34" dominant-baseline="ideographic">Spatial Models</tspan></text></g></g></g><g id="g-root-tf_m8ljjb17mc4r2-stroke" data-item-order="999324352"></g><g id="g-root-sy_5_cu_18lxt0n17mc3ym-stroke" data-item-order="999928551" transform="translate(463.24951171875, 331.755859375)"><g id="sy_5_cu_18lxt0n17mc3ym-stroke" fill="none" stroke-linecap="round" stroke-linejoin="round" stroke-miterlimit="4" stroke="#ffffff" stroke-width="2"><g><path d="M 21.3646 112.3316C 20.3601 99.7068 16.3302 87.9343 10 77.7392L 103.3361 10C 123.3401 39.3254 135.4294 74.4805 136.5293 112.3908L 21.3646 112.3316Z"></path></g></g></g><g id="g-root-sy_4_cu_1464aw717mc4qv-stroke" data-item-order="999928555" transform="translate(427, 259)"><g id="sy_4_cu_1464aw717mc4qv-stroke" fill="none" stroke-linecap="round" stroke-linejoin="round" stroke-miterlimit="4" stroke="#ffffff" stroke-width="2"><g><path d="M 39.4485 141.1687C 31.5362 131.8557 21.4613 124.4372 10 119.6894L 45.5779 10C 80.4046 22.4662 110.58 44.7084 132.7976 73.42L 39.4485 141.1687Z"></path></g></g></g><g id="g-root-sy_3_cu_1464aw717mc4qw-stroke" data-item-order="999928559" transform="translate(343.9873046875, 248)"><g id="sy_3_cu_1464aw717mc4qw-stroke" fill="none" stroke-linecap="round" stroke-linejoin="round" stroke-miterlimit="4" stroke="#ffffff" stroke-width="2"><g><path d="M 82.0987 127.2646C 76.1178 125.785 69.8631 125 63.425 125C 57.2918 125 51.3251 125.7124 45.6029 127.0591L 10 17.6761C 27.1074 12.6796 45.2033 10 63.925 10C 82.578 10 100.6097 12.6599 117.6616 17.6212L 82.0987 127.2646Z"></path></g></g></g><g id="g-root-sy_2_cu_1464aw717mc4qx-stroke" data-item-order="999928563" transform="translate(245.9755859375, 259.24609375)"><g id="sy_2_cu_1464aw717mc4qx-stroke" fill="none" stroke-linecap="round" stroke-linejoin="round" stroke-miterlimit="4" stroke="#ffffff" stroke-width="2"><g><path d="M 132.6076 119.2926C 120.9962 123.9486 110.7733 131.3334 102.7324 140.6537L 10 73.3525C 32.1782 44.6923 62.2858 22.4785 97.034 10L 132.6076 119.2926Z"></path></g></g></g><g id="g-root-sy_1_cu_zqasrr17mc5j6-stroke" data-item-order="999928567" transform="translate(206, 331.935546875)"><g id="sy_1_cu_zqasrr17mc5j6-stroke" fill="none" stroke-linecap="round" stroke-linejoin="round" stroke-miterlimit="4" stroke="#ffffff" stroke-width="2"><g><path d="M 135.8367 77.2402C 129.3397 87.5284 125.197 99.4516 124.1653 112.2533L 10 112.1946C 11.1361 74.3591 23.2184 39.2747 43.1883 10L 135.8367 77.2402Z"></path></g></g></g><g id="g-root-tx_politica_1d309bb17mosnh-stroke" data-item-order="1000000000" transform="translate(320, 158)"></g><g id="g-root-tx_urbanana_zs681317mor2m-stroke" data-item-order="1000000000" transform="translate(122, 206)"></g><g id="g-root-tx_healthan_8d8vb17motms-stroke" data-item-order="1000000000" transform="translate(572, 206)"></g><g id="g-root-ic_1_13zvk1317mnd37-stroke" data-item-order="1000000000" transform="translate(374, 278)"><g id="ic_1_13zvk1317mnd37-stroke" fill="none" stroke-linecap="round" stroke-linejoin="round" stroke-miterlimit="4" stroke="#ffffff" stroke-width="2"><g><path d="M 22.41 30.676001L 17.271999 30.676001L 11 44.664001L 57 44.664001L 50.728001 30.676001L 46.102001 30.676001M 29.966 32.629997L 24.902 26.914C 24.541756 26.508497 24.357647 25.97633 24.390289 25.434902C 24.422932 24.893476 24.669647 24.387283 25.076 24.028L 38.82 11.85C 39.665306 11.101995 40.956688 11.179854 41.706001 12.024L 48.919998 20.167999C 49.668007 21.013306 49.590145 22.304688 48.746002 23.054001L 37.972 32.599998M 22.5 36.676003L 45.5 36.676003M 11 44.664001L 11 56.664001M 57 44.664001L 57 56.664001"></path></g></g></g><g id="g-root-ic_clou_dgpdt317mm03u-stroke" data-item-order="1000000000" transform="translate(290, 302)"><g id="ic_clou_dgpdt317mm03u-stroke" fill="none" stroke-linecap="round" stroke-linejoin="round" stroke-miterlimit="4" stroke="#ffffff" stroke-width="2"><g><path d="M 41 12.044C 41 11.491715 41.447716 11.044 42 11.044L 55.986 11.044C 56.538284 11.044 56.986 11.491715 56.986 12.044L 56.986 56C 56.986 56.552284 56.538284 57 55.986 57L 41 57ZM 40.992001 57L 25.01 57L 25.01 35.021999L 40.992001 35.021999M 33.708 27.736C 33.317501 27.345617 32.684502 27.345617 32.293999 27.736L 25.01 35.021999L 41 35.021999ZM 25.01 57L 14.02 57C 13.467715 57 13.02 56.552284 13.02 56L 13.02 47L 25.01 47M 25.01 41.015999L 15.554 41.015999C 15.219912 41.015724 14.907753 41.182312 14.722 41.459999L 12.058001 45.459999C 11.853823 45.766827 11.834962 46.161087 12.008919 46.486C 12.182876 46.810917 12.521448 47.013809 12.89 47.014L 25.01 47.014M 44.987999 15.042L 44.987999 17.040001M 48.984001 15.042L 48.984001 17.040001M 52.98 15.042L 52.98 17.040001M 44.987999 23.034L 44.987999 25.032M 48.984001 23.034L 48.984001 25.032M 52.98 23.034L 52.98 25.032M 44.987999 31.025999L 44.987999 33.024002M 48.984001 31.025999L 48.984001 33.024002M 52.98 31.025999L 52.98 33.024002M 44.987999 39.017998L 44.987999 41.015999M 48.984001 39.017998L 48.984001 41.015999M 52.98 39.017998L 52.98 41.015999M 29.129999 41.970001L 29.129999 43.967999M 33.125999 41.970001L 33.125999 43.967999M 37.122002 41.970001L 37.122002 43.967999M 29.129999 49.962002L 29.129999 51.959999M 33.125999 49.962002L 33.125999 51.959999M 37.122002 49.962002L 37.122002 51.959999M 44.987999 47.009998L 44.987999 49.007999M 48.984001 47.009998L 48.984001 49.007999M 52.98 47.009998L 52.98 49.007999M 27.134001 23.034C 29.313665 22.76339 30.961946 20.930069 30.999998 18.733999C 30.999722 17.568113 30.525158 16.452505 29.685429 15.64371C 28.845701 14.834915 27.713076 14.402536 26.547998 14.445999C 25.558434 12.342384 23.442745 10.999722 21.118 11C 17.896202 10.987485 15.201704 13.444693 14.917999 16.653999C 13.966191 16.451782 12.973969 16.690266 12.218021 17.302944C 11.462074 17.915623 11.023279 18.836948 11.024 19.809999C 11.034203 20.699526 11.406809 21.546398 12.055711 22.154911C 12.704613 22.76342 13.573654 23.080908 14.462 23.034Z"></path></g></g></g><g id="g-root-ic_wave_1hfpe0717mne2s-stroke" data-item-order="1000000000" transform="translate(458, 302)"><g id="ic_wave_1hfpe0717mne2s-stroke" fill="none" stroke-linecap="round" stroke-linejoin="round" stroke-miterlimit="4" stroke="#ffffff" stroke-width="2"><g><path d="M 13.794 45L 29 45.001999M 15.02 21L 52.990002 21M 31 33.001999L 11.018 33M 32.753998 56.967999C 20.623407 56.298813 11.10532 46.31049 11.021425 34.161743C 10.937531 22.012997 20.316765 11.894176 32.436958 11.057522C 44.557156 10.220867 55.237804 18.954956 56.824001 31M 32.535999 11.052C 20.535999 24.052 20.754 40.968002 32.753998 56.967999M 35.458 11.052C 40.677113 16.44335 43.812664 23.512518 44.306004 31.000002M 45 57L 34.771999 46.330002C 32.930214 44.488728 32.473412 41.675423 33.638 39.346001L 33.638 39.346001C 34.508209 37.606316 36.161579 36.390945 38.081676 36.079514C 40.001774 35.768082 41.954536 36.398552 43.330002 37.774002L 45 39.444L 46.669998 37.774002C 48.045467 36.398552 49.99823 35.768082 51.918327 36.079514C 53.838425 36.390945 55.491795 37.606316 56.362003 39.346001L 56.362 39.346001C 57.526585 41.675423 57.069786 44.488728 55.228001 46.330002Z"></path></g></g></g><g id="g-root-tx_transpor_mgppnr17mosnj-stroke" data-item-order="1000000000" transform="translate(26, 362)"></g><g id="g-root-tx_environm_djtr8n17mos1v-stroke" data-item-order="1000000000" transform="translate(626, 361.607421875)"></g><g id="g-root-ic_bus_1i0x317mhr0k-stroke" data-item-order="1000000000" transform="translate(242, 374)"><g id="ic_bus_1i0x317mhr0k-stroke" fill="none" stroke-linecap="round" stroke-linejoin="round" stroke-miterlimit="4" stroke="#ffffff" stroke-width="2"><g><path d="M 57 51.5C 57 52.604568 56.104568 53.5 55 53.5L 39 53.5C 37.895432 53.5 37 52.604568 37 51.5L 37 49.972C 36.999813 49.661522 37.072426 49.355331 37.211998 49.077999L 39 45.5L 55 45.5L 56.787998 49.077999C 56.927574 49.355331 57.000183 49.661522 56.999996 49.971996ZM 39 56.5L 39 53.5M 55 56.5L 55 53.5M 39 45.5L 39.722 41.172001C 39.882332 40.207603 40.716362 39.50045 41.694 39.5L 52.306 39.5C 53.283634 39.50045 54.117668 40.207603 54.278 41.172001L 55 45.5M 37.054001 49.5L 42 49.5M 52 49.5L 56.984001 49.5M 17 11.5L 27 11.5C 27 11.5 29 11.5 29 13.5L 29 25.5C 29 25.5 29 27.5 27 27.5L 17 27.5C 17 27.5 15 27.5 15 25.5L 15 13.5C 15 13.5 15 11.5 17 11.5M 17 27.5L 17 29.5M 27 27.5L 27 29.5M 18 23C 18.276142 23 18.5 23.223858 18.5 23.5M 17.5 23.5C 17.5 23.223858 17.723858 23 18 23M 18 24C 17.723858 24 17.5 23.776142 17.5 23.5M 18.5 23.5C 18.5 23.776142 18.276142 24 18 24M 26 23C 26.276142 23 26.5 23.223858 26.5 23.5M 25.5 23.5C 25.5 23.223858 25.723858 23 26 23M 26 24C 25.723858 24 25.5 23.776142 25.5 23.5M 26.5 23.5C 26.5 23.776142 26.276142 24 26 24M 15 19.5L 29 19.5M 11 13.5L 11 17.5M 33 13.5L 33 17.5M 35 22.5C 41.627419 22.5 47 27.872583 47 34.5M 35 46.5C 28.372583 46.5 23 41.127419 23 34.5L 23 33.5M 44 31.5L 47 34.5L 50 31.5M 26 36.5L 23 33.5L 20 36.5"></path></g></g></g><g id="g-root-ic_stra_zqasrr17mc5j7-stroke" data-item-order="1000000000" transform="translate(362, 386)"><g id="ic_stra_zqasrr17mc5j7-stroke" fill="none" stroke-linecap="round" stroke-linejoin="round" stroke-miterlimit="4" stroke="#484848" stroke-width="2"><g><path d="M 13 70C 13 74.970566 17.029438 79 22 79C 26.970562 79 31 74.970566 31 70C 31 65.029442 26.970562 61 22 61C 17.029438 61 13 65.029442 13 70M 37 61L 55 61L 55 79L 37 79ZM 70 61L 61 79L 79 79L 70 61ZM 50.5 46L 41.5 46M 55 29.5C 54.858925 24.589056 50.910942 20.641069 45.999996 20.5C 41.089054 20.641069 37.141068 24.589056 36.999996 29.499998C 37.067497 32.620064 38.778767 35.472179 41.5 37L 41.5 40L 50.5 40L 50.5 37C 53.221233 35.472179 54.932503 32.620064 55 29.5ZM 22 61L 22 53.5C 22 52.671574 22.671572 52 23.5 52L 68.5 52C 69.32843 52 70 52.671574 70 53.5L 70 61M 46 46L 46 61M 46 13L 46 16M 57.670002 17.83L 55.540001 19.959999M 62.5 28L 59.5 28M 34.329998 17.83L 36.459999 19.959999M 29.5 28L 32.5 28"></path></g></g></g><g id="g-root-ic_road_1uljmlj17motmt-stroke" data-item-order="1000000000" transform="translate(506, 374)"><g id="ic_road_1uljmlj17motmt-stroke" fill="none" stroke-linecap="round" stroke-linejoin="round" stroke-miterlimit="4" stroke="#ffffff" stroke-width="2"><g><path d="M 38.610001 35.610001C 37.597809 36.509056 36.291817 37.006981 34.938 37.009998C 32.097672 36.972958 29.710005 34.867393 29.318001 32.054001L 29.254 31.562C 27.288733 30.675159 26.01874 28.726271 26.001123 26.570244C 25.983509 24.414215 27.221487 22.444836 29.172001 21.526001L 29.25 21.074001C 29.211016 18.792166 31.030138 16.911243 33.312 16.874001L 33.711998 16.455999C 33.659111 14.534267 34.654129 12.73544 36.310143 11.758982C 37.966156 10.782523 40.021843 10.782523 41.677856 11.758982C 43.33387 12.73544 44.328888 14.534267 44.276001 16.456001L 44.675999 16.874001C 46.957867 16.911243 48.776985 18.792166 48.738003 21.074001L 49.223999 21.734001C 51.015457 22.768219 52.079926 24.715786 51.983097 26.782076C 51.886265 28.848364 50.644325 30.687849 48.764 31.549999L 48.669998 32.054001C 48.277199 34.866966 45.890007 36.972115 43.049999 37.010002C 41.711052 37.009075 40.417305 36.52552 39.405998 35.647999ZM 39 24L 39 45M 39 31C 41.858765 31.000643 44.500618 29.475765 45.93 27M 39 29C 35.686295 29 33 26.313709 33 23M 27.016001 35.639999L 26.958 35.950001C 26.717047 37.681305 25.247845 38.977161 23.5 39C 22.676254 38.999115 21.880375 38.701637 21.257999 38.162003L 20.76 38.146C 20.135363 38.695656 19.332043 38.999214 18.5 39C 16.751829 38.978008 15.282156 37.68174 15.042 35.950001L 15.002 35.648003C 13.792212 35.102539 13.010352 33.903038 12.999609 32.576012C 12.988865 31.248981 13.751202 30.036982 14.952 29.472002L 15 29.200001C 14.987696 28.525108 15.244322 27.873032 15.713298 27.387548C 16.182274 26.902063 16.825085 26.623041 17.5 26.612001L 17.75 26.354C 17.721054 24.530266 19.176258 23.028494 21 23C 21.339771 22.999191 21.677444 23.053219 22 23.16M 21 33L 21 45M 11 45L 57 45M 11 57L 57 57M 15 51L 23 51M 29 51L 37 51M 43 51L 51 51"></path></g></g></g><g id="g-root-tx_4ikaw717waayq-stroke" data-item-order="1000000000" transform="translate(326, 478)"></g></g></g><path id="whye5eqnx3ksj" d="M65.283 12.757a.35.35 0 0 0 .584.157l5.203-5.141-6.183 3.523.396 1.461zm-2.216-11.7a.35.35 0 0 0-.522.305v3.111l3.276-1.868-2.754-1.548zm3.728 2.105l-4.25 2.421v2.445l6.391-3.644-2.141-1.222zm4.708 3.303a.35.35 0 0 0 0-.609l-1.592-.9-7.365 4.199v1.782a.35.35 0 0 0 .523.305l8.435-4.777z M44.542 2.513c0-.433.355-.783.792-.783s.792.35.792.783-.355.783-.792.783-.792-.35-.792-.783zm59.171 0c0-.433.355-.783.792-.783s.792.35.792.783-.355.783-.792.783-.792-.35-.792-.783zm-85.951 7.636h-1.27v-.487c-.276.201-.864.609-1.881.609-1.202 0-2.274-.794-2.137-2.078.118-1.106 1.153-1.584 1.848-1.727l2.17-.345c0-.539-.29-.956-1.064-1.006s-1.21.305-1.571 1.017l-1.124-.605c1.218-2.631 5.029-1.764 5.029.414v4.207zm-1.27-2.86c.006.396-.062 1.112-.819 1.59-.587.37-1.841.299-1.903-.395-.049-.555.461-.791.906-.898l1.816-.297zm72.662 2.86h-1.27v-.487c-.276.201-.864.609-1.881.609-1.202 0-2.274-.794-2.137-2.078.118-1.106 1.153-1.584 1.848-1.727l2.17-.345c0-.539-.29-.956-1.064-1.006s-1.21.305-1.571 1.017l-1.124-.605c1.218-2.631 5.029-1.764 5.029.414v4.207zm-1.27-2.86c.006.396-.062 1.112-.82 1.59-.587.37-1.841.299-1.903-.395-.049-.555.461-.791.906-.898l1.816-.297zM99.096 10.149H97.85v-8.45h1.246v4.895l2.68-2.559h1.738l-2.633 2.535 2.715 3.578h-1.556l-2.077-2.707-.867.844v1.863zm6.053-6.114h-1.255v6.113h1.255V4.035zm-59.2 0h-1.255v6.113h1.255V4.035zm5.584 6.113V1.697h1.255v2.695c.361-.346 1-.485 1.47-.485 1.452 0 2.477 1.082 2.457 2.448v3.792h-1.27v-3.68c0-.408-.214-1.339-1.315-1.339-.968 0-1.342.756-1.342 1.339v3.681h-1.255zm-4.76-4.894V4.039h.621a.45.45 0 0 0 .45-.45v-.855h1.251v1.305h1.309v1.215h-1.309v3.109c0 .293.105.664.648.664.365 0 .531-.035.736-.07v1.137s-.361.113-.857.113c-1.398 0-1.777-1.051-1.777-1.788V5.254h-1.071zM36.528 4.039h-1.394l2.191 6.106h1.125l1.234-3.918 1.238 3.918h1.129l2.188-6.106h-1.383l-1.359 3.93-1.256-3.93h-1.124l-1.242 3.957-1.348-3.957zM26.212 7.141c-.02 1.566 1.187 3.129 3.223 3.129 1.566 0 2.383-.918 2.734-1.719L31.172 8c-.315.399-.801 1.094-1.738 1.094-1.145 0-1.825-.781-1.891-1.52h4.625c.074-.284.148-.995-.03-1.559-.336-1.064-1.221-2.102-2.839-2.102s-3.088 1.152-3.088 3.227zm1.363-.75h3.348c-.055-.43-.566-1.301-1.623-1.301a1.79 1.79 0 0 0-1.725 1.301zm-8.758.75c.038 1.758 1.277 3.133 3.145 3.133 1.074 0 1.723-.477 1.961-.672v.547h1.242V1.703h-1.258v2.888c-.414-.36-1.062-.68-1.93-.68-1.91 0-3.198 1.473-3.16 3.23zm1.309-.08c0 1.119.723 1.978 1.836 1.978a1.88 1.88 0 0 0 1.94-1.904c0-1.371-1.011-1.99-1.972-1.99s-1.805.798-1.805 1.916zm76.683-.028C96.771 5.275 95.532 3.9 93.664 3.9c-1.074 0-1.723.477-1.961.672v-.547h-1.242v8.22h1.258V9.583c.414.36 1.063.68 1.93.68 1.91 0 3.198-1.473 3.16-3.23zm-1.309.08c0-1.119-.723-1.978-1.836-1.978a1.88 1.88 0 0 0-1.94 1.904c0 1.371 1.011 1.99 1.972 1.99S95.5 8.231 95.5 7.113zM106.441 10.173V4.036h1.254v.382c.361-.346 1-.485 1.47-.485 1.452 0 2.477 1.082 2.457 2.448v3.792h-1.27V6.492c0-.408-.214-1.339-1.315-1.339-.969 0-1.342.756-1.342 1.339v3.681h-1.254zm-30.383-.021V1.824h1.084l4.215 5.777V1.824h1.32v8.328h-1.094l-4.207-5.796v5.796h-1.319zM5.24 10.149H4V2.377h1.014l2.664 3.597 2.654-3.592h1.03v7.766h-1.256V4.762L7.678 8.068 5.24 4.742v5.407z" transform="translate(680, 518)" fill="#80808088" stroke="none"></path></svg>